<svg xmlns="http://www.w3.org/2000/svg" viewBox="0 0 1440 680" preserveAspectRatio="xMidYMid slice">
  <defs><linearGradient id="wash" x1="0" x2="1"><stop stop-color="#fff" stop-opacity=".99"/><stop offset=".48" stop-color="#fff" stop-opacity=".92"/><stop offset=".78" stop-color="#f8fbf5" stop-opacity=".74"/><stop offset="1" stop-color="#eef5e9" stop-opacity=".62"/></linearGradient><linearGradient id="glass" x1="0" y1="0" x2="0" y2="1"><stop stop-color="#fffdf3"/><stop offset="1" stop-color="#edf5ea"/></linearGradient><filter id="soft"><feGaussianBlur stdDeviation="6"/></filter><filter id="blur"><feGaussianBlur stdDeviation="13"/></filter></defs>
  <rect width="1440" height="680" fill="#f7faf4"/><g opacity=".62" filter="url(#soft)"><rect x="742" y="30" width="610" height="470" rx="8" fill="url(#glass)" stroke="#d6e1d3" stroke-width="9"/><path d="M945 30v470m203-470v470M742 260h610" stroke="#d7e1d3" stroke-width="12"/><ellipse cx="1080" cy="125" rx="145" ry="105" fill="#fff7cf" opacity=".46" filter="url(#blur)"/><path d="M723 518h686v34H723z" fill="#cbb797" opacity=".38"/><rect x="825" y="488" width="310" height="95" rx="9" fill="#bca787" opacity=".22"/><rect x="860" y="447" width="245" height="54" rx="8" fill="#e8e1cf" opacity=".35"/><g fill="none" stroke="#6d985f" stroke-linecap="round"><path d="M1341 544c-38-118-12-215 51-263-10 92 38 130 13 263" stroke-width="18"/><path d="M1360 540c-91-89-85-172-35-220 4 74 60 107 35 220" stroke-width="15"/><path d="M1384 538c55-87 63-159 30-205-14 69-57 103-30 205" stroke-width="15"/></g><rect x="1330" y="523" width="94" height="105" rx="11" fill="#9c7958" opacity=".5"/><g opacity=".5"><rect x="1180" y="430" width="116" height="112" rx="5" fill="#d9cbb2"/><rect x="1194" y="442" width="18" height="86" fill="#9cae8e"/><rect x="1220" y="452" width="17" height="76" fill="#bfaa83"/><rect x="1247" y="439" width="22" height="89" fill="#8fa681"/></g></g><rect width="1440" height="680" fill="url(#wash)"/>
</svg>
