<svg xmlns="http://www.w3.org/2000/svg" viewBox="0 0 620 360"><rect width="620" height="360" rx="14" fill="#fbf3e5"/><rect x="405" y="30" width="150" height="130" fill="#fff9e9" stroke="#d4b98e" stroke-width="9"/><path d="M480 31v129M405 95h150" stroke="#e2ceb0" stroke-width="5"/><path d="M50 285h520l-30 55H75z" fill="#9e774b"/><circle cx="220" cy="130" r="49" fill="#ead1ae"/><path d="M168 132c2-58 96-71 107 5-21-18-82-25-107-5Z" fill="#718276"/><path d="M155 283c5-89 35-124 74-124 46 0 75 38 78 124" fill="#8fa298"/><circle cx="403" cy="145" r="44" fill="#efd4aa"/><path d="M356 146c4-49 82-63 94 0-25-18-69-19-94 0Z" fill="#ad8253"/><path d="M341 285c5-77 29-108 65-108 39 0 65 34 69 108" fill="#d8b888"/><path d="M200 132h20m15 0h20M220 132c0 24-8 37-19 43m184-30h13m14 0h13M397 155c5 5 11 5 16 0" fill="none" stroke="#40584b" stroke-width="4" stroke-linecap="round"/><rect x="255" y="255" width="135" height="13" rx="5" fill="#fff" stroke="#526b5c" stroke-width="3" transform="rotate(-4 255 255)"/><path d="m285 254 33-32 42 27" fill="#eef5ed" stroke="#526b5c" stroke-width="3"/><path d="M102 71h115M104 88h80M77 117h90" stroke="#dfc9aa" stroke-width="7" opacity=".6"/></svg>
